<svg width="330" height="95" viewBox="0 0 330 95" fill="none" xmlns="http://www.w3.org/2000/svg">
<path d="M20.608 3.544V7.096H6.064V18.376H17.872V21.928H6.064V37H1.696V3.544H20.608ZM25.2595 6.424C24.4275 6.424 23.7235 6.136 23.1475 5.56C22.5715 4.984 22.2835 4.28 22.2835 3.448C22.2835 2.616 22.5715 1.912 23.1475 1.336C23.7235 0.759998 24.4275 0.471998 25.2595 0.471998C26.0595 0.471998 26.7315 0.759998 27.2755 1.336C27.8515 1.912 28.1395 2.616 28.1395 3.448C28.1395 4.28 27.8515 4.984 27.2755 5.56C26.7315 6.136 26.0595 6.424 25.2595 6.424ZM27.3715 10.696V37H23.0035V10.696H27.3715ZM44.752 10.216C47.952 10.216 50.544 11.192 52.528 13.144C54.512 15.064 55.504 17.848 55.504 21.496V37H51.184V22.12C51.184 19.496 50.528 17.496 49.216 16.12C47.904 14.712 46.112 14.008 43.84 14.008C41.536 14.008 39.696 14.728 38.32 16.168C36.976 17.608 36.304 19.704 36.304 22.456V37H31.936V10.696H36.304V14.44C37.168 13.096 38.336 12.056 39.808 11.32C41.312 10.584 42.96 10.216 44.752 10.216ZM58.1271 23.752C58.1271 21.064 58.6711 18.712 59.7591 16.696C60.8471 14.648 62.3351 13.064 64.2231 11.944C66.1431 10.824 68.2871 10.264 70.6551 10.264C72.7031 10.264 74.6071 10.744 76.3671 11.704C78.1271 12.632 79.4711 13.864 80.3991 15.4V1.48H84.8151V37H80.3991V32.056C79.5351 33.624 78.2551 34.92 76.5591 35.944C74.8631 36.936 72.8791 37.432 70.6071 37.432C68.2711 37.432 66.1431 36.856 64.2231 35.704C62.3351 34.552 60.8471 32.936 59.7591 30.856C58.6711 28.776 58.1271 26.408 58.1271 23.752ZM80.3991 23.8C80.3991 21.816 79.9991 20.088 79.1991 18.616C78.3991 17.144 77.3111 16.024 75.9351 15.256C74.5911 14.456 73.1031 14.056 71.4711 14.056C69.8391 14.056 68.3511 14.44 67.0071 15.208C65.6631 15.976 64.5911 17.096 63.7911 18.568C62.9911 20.04 62.5911 21.768 62.5911 23.752C62.5911 25.768 62.9911 27.528 63.7911 29.032C64.5911 30.504 65.6631 31.64 67.0071 32.44C68.3511 33.208 69.8391 33.592 71.4711 33.592C73.1031 33.592 74.5911 33.208 75.9351 32.44C77.3111 31.64 78.3991 30.504 79.1991 29.032C79.9991 27.528 80.3991 25.784 80.3991 23.8ZM121.889 10.696L106.049 49.384H101.537L106.721 36.712L96.1135 10.696H100.961L109.217 32.008L117.377 10.696H121.889ZM134.872 37.432C132.408 37.432 130.168 36.872 128.152 35.752C126.168 34.632 124.6 33.048 123.448 31C122.328 28.92 121.768 26.52 121.768 23.8C121.768 21.112 122.344 18.744 123.496 16.696C124.68 14.616 126.28 13.032 128.296 11.944C130.312 10.824 132.568 10.264 135.064 10.264C137.56 10.264 139.816 10.824 141.832 11.944C143.848 13.032 145.432 14.6 146.584 16.648C147.768 18.696 148.36 21.08 148.36 23.8C148.36 26.52 147.752 28.92 146.536 31C145.352 33.048 143.736 34.632 141.688 35.752C139.64 36.872 137.368 37.432 134.872 37.432ZM134.872 33.592C136.44 33.592 137.912 33.224 139.288 32.488C140.664 31.752 141.768 30.648 142.6 29.176C143.464 27.704 143.896 25.912 143.896 23.8C143.896 21.688 143.48 19.896 142.648 18.424C141.816 16.952 140.728 15.864 139.384 15.16C138.04 14.424 136.584 14.056 135.016 14.056C133.416 14.056 131.944 14.424 130.6 15.16C129.288 15.864 128.232 16.952 127.432 18.424C126.632 19.896 126.232 21.688 126.232 23.8C126.232 25.944 126.616 27.752 127.384 29.224C128.184 30.696 129.24 31.8 130.552 32.536C131.864 33.24 133.304 33.592 134.872 33.592ZM174.551 10.696V37H170.183V33.112C169.351 34.456 168.183 35.512 166.679 36.28C165.207 37.016 163.575 37.384 161.783 37.384C159.735 37.384 157.895 36.968 156.263 36.136C154.631 35.272 153.335 33.992 152.375 32.296C151.447 30.6 150.983 28.536 150.983 26.104V10.696H155.303V25.528C155.303 28.12 155.959 30.12 157.271 31.528C158.583 32.904 160.375 33.592 162.647 33.592C164.983 33.592 166.823 32.872 168.167 31.432C169.511 29.992 170.183 27.896 170.183 25.144V10.696H174.551ZM183.415 14.968C184.183 13.464 185.271 12.296 186.679 11.464C188.119 10.632 189.863 10.216 191.911 10.216V14.728H190.759C185.863 14.728 183.415 17.384 183.415 22.696V37H179.047V10.696H183.415V14.968Z" fill="white"/>
<path d="M21.376 76.72C23.328 77.136 24.896 78.112 26.08 79.648C27.264 81.152 27.856 82.88 27.856 84.832C27.856 87.648 26.864 89.888 24.88 91.552C22.928 93.184 20.192 94 16.672 94H0.976V60.304H16.144C19.568 60.304 22.24 61.088 24.16 62.656C26.112 64.224 27.088 66.352 27.088 69.04C27.088 71.024 26.56 72.672 25.504 73.984C24.48 75.296 23.104 76.208 21.376 76.72ZM9.184 73.936H14.56C15.904 73.936 16.928 73.648 17.632 73.072C18.368 72.464 18.736 71.584 18.736 70.432C18.736 69.28 18.368 68.4 17.632 67.792C16.928 67.184 15.904 66.88 14.56 66.88H9.184V73.936ZM15.232 87.376C16.608 87.376 17.664 87.072 18.4 86.464C19.168 85.824 19.552 84.912 19.552 83.728C19.552 82.544 19.152 81.616 18.352 80.944C17.584 80.272 16.512 79.936 15.136 79.936H9.184V87.376H15.232ZM39.8646 66.88V73.696H50.8566V80.032H39.8646V87.424H52.2966V94H31.6566V60.304H52.2966V66.88H39.8646ZM68.8574 94.336C66.3934 94.336 64.1854 93.936 62.2334 93.136C60.2814 92.336 58.7134 91.152 57.5294 89.584C56.3774 88.016 55.7694 86.128 55.7054 83.92H64.4414C64.5694 85.168 65.0014 86.128 65.7374 86.8C66.4734 87.44 67.4334 87.76 68.6174 87.76C69.8334 87.76 70.7934 87.488 71.4974 86.944C72.2014 86.368 72.5534 85.584 72.5534 84.592C72.5534 83.76 72.2654 83.072 71.6894 82.528C71.1454 81.984 70.4574 81.536 69.6254 81.184C68.8254 80.832 67.6734 80.432 66.1694 79.984C63.9934 79.312 62.2174 78.64 60.8414 77.968C59.4654 77.296 58.2814 76.304 57.2894 74.992C56.2974 73.68 55.8014 71.968 55.8014 69.856C55.8014 66.72 56.9374 64.272 59.2094 62.512C61.4814 60.72 64.4414 59.824 68.0894 59.824C71.8014 59.824 74.7934 60.72 77.0654 62.512C79.3374 64.272 80.5534 66.736 80.7134 69.904H71.8334C71.7694 68.816 71.3694 67.968 70.6334 67.36C69.8974 66.72 68.9534 66.4 67.8014 66.4C66.8094 66.4 66.0094 66.672 65.4014 67.216C64.7934 67.728 64.4894 68.48 64.4894 69.472C64.4894 70.56 65.0014 71.408 66.0254 72.016C67.0494 72.624 68.6494 73.28 70.8254 73.984C73.0014 74.72 74.7614 75.424 76.1054 76.096C77.4814 76.768 78.6654 77.744 79.6574 79.024C80.6494 80.304 81.1454 81.952 81.1454 83.968C81.1454 85.888 80.6494 87.632 79.6574 89.2C78.6974 90.768 77.2894 92.016 75.4334 92.944C73.5774 93.872 71.3854 94.336 68.8574 94.336ZM109.477 60.304V66.88H100.549V94H92.3406V66.88H83.4126V60.304H109.477ZM146.088 60.304V66.88H137.16V94H128.952V66.88H120.024V60.304H146.088ZM157.455 66.88V73.696H168.447V80.032H157.455V87.424H169.887V94H149.247V60.304H169.887V66.88H157.455ZM195.232 88.048H182.656L180.64 94H172.048L184.24 60.304H193.744L205.936 94H197.248L195.232 88.048ZM193.12 81.712L188.944 69.376L184.816 81.712H193.12ZM207.295 77.104C207.295 73.776 208.015 70.816 209.455 68.224C210.895 65.6 212.895 63.568 215.455 62.128C218.047 60.656 220.975 59.92 224.239 59.92C228.239 59.92 231.663 60.976 234.511 63.088C237.359 65.2 239.263 68.08 240.223 71.728H231.199C230.527 70.32 229.567 69.248 228.319 68.512C227.103 67.776 225.711 67.408 224.143 67.408C221.615 67.408 219.567 68.288 217.999 70.048C216.431 71.808 215.647 74.16 215.647 77.104C215.647 80.048 216.431 82.4 217.999 84.16C219.567 85.92 221.615 86.8 224.143 86.8C225.711 86.8 227.103 86.432 228.319 85.696C229.567 84.96 230.527 83.888 231.199 82.48H240.223C239.263 86.128 237.359 89.008 234.511 91.12C231.663 93.2 228.239 94.24 224.239 94.24C220.975 94.24 218.047 93.52 215.455 92.08C212.895 90.608 210.895 88.576 209.455 85.984C208.015 83.392 207.295 80.432 207.295 77.104ZM273.473 60.304V94H265.265V80.128H252.497V94H244.289V60.304H252.497V73.504H265.265V60.304H273.473ZM286.646 66.88V73.696H297.638V80.032H286.646V87.424H299.078V94H278.438V60.304H299.078V66.88H286.646ZM320.631 94L313.623 81.28H311.655V94H303.447V60.304H317.223C319.879 60.304 322.135 60.768 323.991 61.696C325.879 62.624 327.287 63.904 328.215 65.536C329.143 67.136 329.607 68.928 329.607 70.912C329.607 73.152 328.967 75.152 327.687 76.912C326.439 78.672 324.583 79.92 322.119 80.656L329.895 94H320.631ZM311.655 75.472H316.743C318.247 75.472 319.367 75.104 320.103 74.368C320.871 73.632 321.255 72.592 321.255 71.248C321.255 69.968 320.871 68.96 320.103 68.224C319.367 67.488 318.247 67.12 316.743 67.12H311.655V75.472Z" fill="#FFEAA4"/>
</svg>
